<?xml version="1.0" standalone="no"?>
<!DOCTYPE svg PUBLIC "-//W3C//DTD SVG 20010904//EN"
 "http://www.w3.org/TR/2001/REC-SVG-20010904/DTD/svg10.dtd">
<svg version="1.0" xmlns="http://www.w3.org/2000/svg"
 width="512.000000pt" height="512.000000pt" viewBox="0 0 512.000000 512.000000"
 preserveAspectRatio="xMidYMid meet">
<metadata>
Created by potrace 1.11, written by Peter Selinger 2001-2013
</metadata>
<g transform="translate(0.000000,512.000000) scale(0.100000,-0.100000)"
fill="#000000" stroke="none">
<path d="M95 5027 c-20 -20 -39 -54 -49 -86 -54 -182 -45 -613 25 -1236 20
-184 108 -808 133 -948 13 -77 13 -80 -14 -165 -103 -321 -102 -665 2 -992 62
-194 154 -372 278 -538 34 -46 61 -85 59 -87 -2 -1 -38 -26 -79 -53 -88 -59
-191 -151 -251 -225 -32 -39 -20 -30 47 36 95 94 180 161 255 202 l47 25 83
-86 c46 -47 85 -89 87 -93 1 -4 -17 -24 -41 -44 -24 -20 -68 -64 -98 -99 -50
-59 -47 -57 45 29 54 51 104 93 111 93 7 0 32 -17 56 -38 68 -60 201 -156 302
-218 88 -55 342 -184 361 -184 5 0 0 10 -12 23 -94 100 -85 305 21 470 61 97
72 106 117 100 47 -7 242 6 259 16 17 11 2 41 -21 41 -10 0 -17 4 -13 9 9 16
-28 30 -99 37 -36 4 -66 10 -66 13 0 4 6 16 14 27 14 19 16 19 108 -5 51 -13
98 -26 104 -28 12 -4 27 37 18 46 -3 3 -44 15 -91 26 l-86 21 38 43 c45 50 51
50 181 -2 l82 -34 11 24 c10 22 8 25 -24 39 -19 7 -66 24 -104 36 l-70 22 42
49 c153 180 185 221 234 295 135 205 249 514 307 832 24 128 46 335 46 420
l-1 75 -169 104 c-94 57 -170 105 -170 107 0 2 77 -24 171 -57 95 -32 174 -58
176 -55 2 2 -57 87 -131 190 -75 102 -136 188 -136 191 0 3 79 -75 175 -172
l174 -178 1 389 c0 214 2 387 4 385 2 -2 11 -173 21 -379 9 -206 17 -379 19
-384 1 -6 60 64 132 154 199 253 195 252 95 25 -49 -110 -86 -201 -82 -203 4
-1 41 12 82 29 171 71 175 72 158 52 -9 -10 -53 -62 -98 -115 l-82 -97 -47 5
c-26 3 -56 7 -66 9 -18 4 -19 -2 -13 -123 18 -349 110 -732 243 -1011 70 -146
135 -244 272 -406 l110 -130 -94 -32 c-117 -39 -116 -38 -103 -67 l11 -23 82
34 c130 52 136 52 181 2 l38 -43 -86 -21 c-47 -11 -88 -23 -91 -26 -9 -9 6
-50 18 -46 6 2 52 15 102 28 77 19 94 21 108 10 31 -26 18 -38 -50 -45 -71 -7
-108 -21 -99 -37 4 -5 -3 -9 -13 -9 -11 0 -22 -9 -25 -20 -7 -28 21 -33 179
-34 l131 -1 41 -56 c84 -114 133 -266 117 -358 -11 -58 -54 -131 -107 -182
-28 -27 -49 -49 -47 -49 17 0 206 83 319 141 148 75 295 169 408 261 40 32 79
61 88 65 9 3 46 -25 101 -78 71 -69 79 -74 44 -32 -23 29 -62 70 -86 91 l-44
39 94 93 94 94 88 -59 c48 -33 128 -100 178 -150 56 -56 74 -70 47 -38 -73 88
-159 162 -300 259 -2 1 18 29 44 61 120 146 243 371 304 553 119 358 118 712
-5 1074 -36 106 -37 112 -27 180 124 837 168 1232 179 1631 9 336 -15 505 -82
572 -28 28 -40 33 -79 33 -60 0 -123 -22 -208 -73 -218 -130 -584 -505 -877
-898 -64 -86 -125 -168 -136 -182 l-20 -26 -73 30 c-176 71 -466 142 -702 171
-138 17 -563 17 -700 0 -242 -31 -485 -90 -694 -169 -102 -39 -120 -43 -128
-30 -4 9 -47 69 -94 134 -311 426 -685 817 -925 965 -88 54 -153 78 -215 78
-39 0 -51 -5 -79 -33z m541 -1244 c93 -142 170 -251 171 -243 2 8 -7 101 -20
207 -12 105 -20 190 -16 187 12 -7 209 -292 209 -301 0 -4 -17 -19 -37 -33
-54 -36 -197 -157 -279 -237 l-72 -69 -153 93 c-84 51 -148 93 -142 93 6 0 98
-14 204 -30 106 -17 193 -29 195 -27 3 2 -128 346 -221 580 -8 20 -13 37 -11
37 2 0 79 -116 172 -257z m3979 -58 c-63 -164 -113 -300 -111 -302 1 -2 92 11
201 27 109 17 200 29 202 26 2 -2 -59 -44 -136 -92 -77 -49 -141 -91 -141 -94
0 -3 54 -34 119 -70 66 -36 118 -66 117 -68 -3 -3 -193 65 -211 76 -7 4 -112
99 -234 210 l-221 204 1 96 0 97 59 -115 c36 -72 60 -109 64 -100 3 8 26 78
50 155 25 77 45 129 45 115 1 -14 -8 -99 -19 -190 -11 -91 -20 -169 -20 -175
0 -5 77 106 172 248 94 141 173 256 174 254 2 -1 -48 -137 -111 -302z m-3355
93 c0 -17 -14 -30 -53 -51 l-52 -29 50 51 c27 28 51 51 52 51 2 0 3 -10 3 -22z
m-728 -596 c-34 -40 -51 -51 -99 -65 -32 -8 -59 -15 -60 -14 -1 2 189 125 195
126 2 1 -14 -21 -36 -47z m513 -992 c83 -11 162 -23 176 -26 l27 -5 4 -132 c4
-158 22 -210 73 -215 56 -5 107 81 141 240 16 70 19 77 38 73 12 -3 120 -19
241 -36 121 -17 221 -32 223 -34 6 -6 -33 -105 -69 -176 -106 -204 -281 -314
-499 -313 -335 2 -531 196 -547 542 l-6 113 24 -5 c13 -3 92 -15 174 -26z
m3215 -56 c0 -349 -210 -566 -550 -568 -215 -1 -391 108 -495 305 -33 63 -79
179 -73 185 2 1 102 16 223 33 121 17 229 33 241 36 19 4 23 -3 37 -69 36
-165 85 -249 141 -244 52 5 70 56 74 216 3 72 7 132 11 133 3 0 89 13 191 29
102 15 188 28 193 29 4 0 7 -37 7 -85z m-2545 -1204 c29 -8 28 -8 -11 -9 -23
-1 -63 -4 -89 -7 -45 -7 -47 -6 -34 13 10 17 20 19 58 16 25 -3 60 -9 76 -13z
m1816 -2 c11 -20 10 -21 -36 -15 -26 4 -66 7 -89 8 -51 1 -38 7 39 18 33 5 63
9 67 10 4 0 12 -9 19 -21z"/>
<path d="M2445 1586 c-77 -20 -119 -41 -163 -80 -52 -47 -72 -91 -72 -157 0
-56 32 -139 54 -139 7 0 34 25 60 55 68 80 102 73 135 -27 8 -25 19 -38 36
-42 24 -6 25 -10 25 -80 l0 -73 -87 -6 c-247 -18 -457 -126 -568 -292 -43 -66
-81 -162 -89 -230 l-6 -50 18 55 c55 164 168 298 313 368 124 61 218 83 388
89 421 17 701 -132 824 -437 31 -76 36 -50 7 34 -88 257 -301 416 -610 456
-52 7 -101 14 -107 16 -9 2 -13 26 -13 71 0 67 1 69 29 80 22 8 32 21 40 48
12 44 37 75 62 75 16 0 53 -34 97 -89 12 -15 25 -22 35 -18 25 9 49 65 54 126
6 70 -23 130 -85 178 -90 68 -261 100 -377 69z"/>
<path d="M139 623 c-13 -16 -12 -17 4 -4 16 13 21 21 13 21 -2 0 -10 -8 -17
-17z"/>
<path d="M4950 636 c0 -2 8 -10 18 -17 15 -13 16 -12 3 4 -13 16 -21 21 -21
13z"/>
<path d="M3341 454 c0 -11 3 -14 6 -6 3 7 2 16 -1 19 -3 4 -6 -2 -5 -13z"/>
</g>
</svg>
